<svg xmlns="http://www.w3.org/2000/svg" viewBox="0 0 1024 1024">
  <defs>
    <radialGradient id="tile" cx="50%" cy="38%" r="75%">
      <stop offset="0" stop-color="#232A36"/><stop offset=".6" stop-color="#11151C"/><stop offset="1" stop-color="#07090D"/>
    </radialGradient>
    <linearGradient id="tileEdge" x1="0" y1="0" x2="0" y2="1">
      <stop offset="0" stop-color="#fff" stop-opacity=".09"/><stop offset=".4" stop-color="#fff" stop-opacity="0"/>
    </linearGradient>
    <radialGradient id="sclera" cx="44%" cy="38%" r="68%">
      <stop offset="0" stop-color="#FBFBFA"/><stop offset=".55" stop-color="#E6E7E9"/><stop offset=".85" stop-color="#B7BCC4"/><stop offset="1" stop-color="#8C929C"/>
    </radialGradient>
    <radialGradient id="iris" cx="50%" cy="50%" r="50%">
      <stop offset=".3" stop-color="#2A3646"/><stop offset=".42" stop-color="#7C93B0"/><stop offset=".62" stop-color="#9DB1CB"/>
      <stop offset=".82" stop-color="#5C7392"/><stop offset=".94" stop-color="#1B2433"/><stop offset="1" stop-color="#0D121A"/>
    </radialGradient>
    <radialGradient id="limbus" cx="50%" cy="50%" r="50%">
      <stop offset=".88" stop-color="#0B1018" stop-opacity="0"/><stop offset="1" stop-color="#0B1018" stop-opacity=".55"/>
    </radialGradient>
    <radialGradient id="gloss" cx="38%" cy="26%" r="55%">
      <stop offset="0" stop-color="#fff" stop-opacity=".55"/><stop offset=".45" stop-color="#fff" stop-opacity=".08"/><stop offset="1" stop-color="#fff" stop-opacity="0"/>
    </radialGradient>
    <radialGradient id="shadow" cx="50%" cy="50%" r="50%">
      <stop offset="0" stop-color="#000" stop-opacity=".55"/><stop offset="1" stop-color="#000" stop-opacity="0"/>
    </radialGradient>
    <clipPath id="irisClip"><circle cx="512" cy="512" r="142"/></clipPath>
  </defs>

  <rect x="100" y="100" width="824" height="824" rx="186" fill="url(#tile)"/>
  <rect x="100" y="100" width="824" height="824" rx="186" fill="url(#tileEdge)"/>
  <rect x="101.5" y="101.5" width="821" height="821" rx="184.5" fill="none" stroke="#fff" stroke-opacity=".07" stroke-width="3"/>

  <ellipse cx="512" cy="758.56" rx="214.4" ry="42.88" fill="url(#shadow)"/>
  <circle cx="512" cy="512" r="268" fill="url(#sclera)"/>

  <g clip-path="url(#irisClip)">
    <circle cx="512" cy="512" r="142" fill="url(#iris)"/>
    <g fill="none" stroke-linecap="round"><path d="M576.2 512.6 Q608.7 513.4 641.2 513.2" stroke="#0E1622" stroke-opacity="0.15" stroke-width="2.6"/><path d="M570.9 514.0 Q601.7 517.7 632.8 516.1" stroke="#0E1622" stroke-opacity="0.27" stroke-width="2.4"/><path d="M569.3 514.9 Q603.7 516.7 638.0 518.4" stroke="#DCE6F3" stroke-opacity="0.12" stroke-width="1.9"/><path d="M569.2 516.3 Q601.1 517.2 632.9 521.2" stroke="#0E1622" stroke-opacity="0.34" stroke-width="3.1"/><path d="M568.9 518.3 Q605.4 520.4 641.5 526.3" stroke="#0E1622" stroke-opacity="0.18" stroke-width="1.4"/><path d="M575.7 521.3 Q612.6 527.5 649.7 532.2" stroke="#0E1622" stroke-opacity="0.17" stroke-width="2.3"/><path d="M572.6 523.0 Q597.9 527.0 622.9 532.2" stroke="#0E1622" stroke-opacity="0.21" stroke-width="3.2"/><path d="M574.6 524.3 Q604.1 531.8 634.3 536.1" stroke="#DCE6F3" stroke-opacity="0.21" stroke-width="1.6"/><path d="M570.9 524.9 Q599.0 530.8 627.0 537.2" stroke="#DCE6F3" stroke-opacity="0.28" stroke-width="2.9"/><path d="M570.8 527.0 Q604.4 532.8 636.7 543.8" stroke="#DCE6F3" stroke-opacity="0.11" stroke-width="2.3"/><path d="M573.1 530.6 Q608.8 538.5 643.0 551.8" stroke="#DCE6F3" stroke-opacity="0.14" stroke-width="2.7"/><path d="M567.0 530.5 Q591.5 540.5 617.1 547.4" stroke="#DCE6F3" stroke-opacity="0.16" stroke-width="1.7"/><path d="M573.5 534.5 Q607.1 543.7 638.9 558.4" stroke="#DCE6F3" stroke-opacity="0.15" stroke-width="1.5"/><path d="M566.7 534.2 Q600.7 550.3 636.4 562.5" stroke="#0E1622" stroke-opacity="0.19" stroke-width="1.9"/><path d="M567.5 536.0 Q604.3 548.7 638.9 566.8" stroke="#0E1622" stroke-opacity="0.28" stroke-width="2.3"/><path d="M568.5 537.4 Q591.4 547.0 613.7 557.7" stroke="#DCE6F3" stroke-opacity="0.12" stroke-width="2.3"/><path d="M569.5 540.1 Q598.3 551.0 624.7 567.1" stroke="#DCE6F3" stroke-opacity="0.11" stroke-width="2.4"/><path d="M563.3 539.3 Q586.5 553.2 611.1 564.7" stroke="#DCE6F3" stroke-opacity="0.30" stroke-width="2.4"/><path d="M564.1 541.9 Q596.5 560.9 629.2 579.4" stroke="#0E1622" stroke-opacity="0.24" stroke-width="2.3"/><path d="M570.5 546.4 Q594.5 560.0 618.1 574.3" stroke="#0E1622" stroke-opacity="0.19" stroke-width="1.9"/><path d="M563.7 545.2 Q588.7 562.0 614.3 577.8" stroke="#DCE6F3" stroke-opacity="0.31" stroke-width="1.6"/><path d="M561.0 546.3 Q593.0 565.5 622.0 589.1" stroke="#DCE6F3" stroke-opacity="0.20" stroke-width="1.4"/><path d="M562.4 549.4 Q585.8 565.9 608.4 583.6" stroke="#DCE6F3" stroke-opacity="0.17" stroke-width="3.1"/><path d="M564.9 552.8 Q593.0 574.5 621.1 596.1" stroke="#DCE6F3" stroke-opacity="0.28" stroke-width="2.8"/><path d="M559.3 551.1 Q587.9 576.8 618.5 600.0" stroke="#0E1622" stroke-opacity="0.36" stroke-width="1.9"/><path d="M561.4 555.9 Q579.4 574.5 600.0 590.1" stroke="#0E1622" stroke-opacity="0.14" stroke-width="1.5"/><path d="M562.3 556.9 Q583.2 574.3 602.9 593.1" stroke="#0E1622" stroke-opacity="0.20" stroke-width="2.1"/><path d="M559.1 557.3 Q577.2 572.8 593.4 590.3" stroke="#DCE6F3" stroke-opacity="0.24" stroke-width="2.8"/><path d="M554.3 554.8 Q574.6 575.9 595.5 596.4" stroke="#DCE6F3" stroke-opacity="0.32" stroke-width="2.0"/><path d="M551.1 553.7 Q570.2 573.3 588.6 593.7" stroke="#DCE6F3" stroke-opacity="0.29" stroke-width="2.3"/><path d="M551.0 558.2 Q570.4 577.4 586.1 599.7" stroke="#0E1622" stroke-opacity="0.32" stroke-width="3.3"/><path d="M551.3 559.5 Q569.6 585.9 592.1 608.9" stroke="#0E1622" stroke-opacity="0.26" stroke-width="1.8"/><path d="M550.3 563.2 Q566.1 583.3 580.8 604.0" stroke="#0E1622" stroke-opacity="0.17" stroke-width="1.6"/><path d="M546.1 559.8 Q561.1 583.9 579.1 606.1" stroke="#0E1622" stroke-opacity="0.31" stroke-width="1.9"/><path d="M544.8 559.7 Q561.5 581.5 575.9 605.0" stroke="#DCE6F3" stroke-opacity="0.17" stroke-width="1.6"/><path d="M543.4 560.6 Q566.7 593.3 587.0 628.0" stroke="#DCE6F3" stroke-opacity="0.22" stroke-width="3.2"/><path d="M546.9 568.3 Q561.2 590.1 574.3 612.6" stroke="#0E1622" stroke-opacity="0.24" stroke-width="2.2"/><path d="M543.6 569.5 Q563.3 600.0 578.4 633.0" stroke="#0E1622" stroke-opacity="0.19" stroke-width="1.8"/><path d="M542.1 569.4 Q556.8 596.0 570.3 623.1" stroke="#DCE6F3" stroke-opacity="0.22" stroke-width="1.8"/><path d="M540.1 568.4 Q553.4 596.9 568.2 624.6" stroke="#0E1622" stroke-opacity="0.28" stroke-width="2.6"/><path d="M538.6 572.1 Q550.6 603.4 565.7 633.3" stroke="#DCE6F3" stroke-opacity="0.19" stroke-width="1.6"/><path d="M535.2 565.7 Q550.1 597.5 562.9 630.1" stroke="#0E1622" stroke-opacity="0.14" stroke-width="1.3"/><path d="M535.0 570.7 Q542.9 598.3 555.8 624.0" stroke="#DCE6F3" stroke-opacity="0.28" stroke-width="2.7"/><path d="M532.1 568.2 Q541.8 599.1 554.0 629.1" stroke="#DCE6F3" stroke-opacity="0.16" stroke-width="3.0"/><path d="M532.7 574.2 Q543.1 598.2 549.1 623.7" stroke="#DCE6F3" stroke-opacity="0.17" stroke-width="2.0"/><path d="M528.0 567.5 Q534.4 597.5 545.0 626.2" stroke="#0E1622" stroke-opacity="0.28" stroke-width="2.4"/><path d="M526.8 567.8 Q537.5 598.8 543.6 631.1" stroke="#DCE6F3" stroke-opacity="0.26" stroke-width="3.0"/><path d="M524.7 570.0 Q531.7 597.4 536.9 625.4" stroke="#DCE6F3" stroke-opacity="0.30" stroke-width="1.3"/><path d="M524.7 575.9 Q530.8 600.1 534.4 624.9" stroke="#0E1622" stroke-opacity="0.30" stroke-width="2.9"/><path d="M524.0 576.0 Q528.0 609.4 536.3 642.0" stroke="#0E1622" stroke-opacity="0.21" stroke-width="1.7"/><path d="M520.7 571.3 Q522.2 600.1 529.0 628.1" stroke="#0E1622" stroke-opacity="0.26" stroke-width="3.2"/><path d="M520.0 576.4 Q522.0 603.7 526.7 630.7" stroke="#0E1622" stroke-opacity="0.32" stroke-width="2.4"/><path d="M517.7 573.2 Q520.2 599.1 522.5 624.9" stroke="#0E1622" stroke-opacity="0.18" stroke-width="1.8"/><path d="M514.7 571.0 Q518.7 601.2 517.5 631.8" stroke="#0E1622" stroke-opacity="0.28" stroke-width="2.7"/><path d="M513.2 572.4 Q515.9 607.5 514.6 642.6" stroke="#DCE6F3" stroke-opacity="0.27" stroke-width="1.8"/><path d="M511.2 571.7 Q508.5 597.3 510.5 622.9" stroke="#DCE6F3" stroke-opacity="0.21" stroke-width="3.3"/><path d="M511.1 569.5 Q512.7 596.2 510.2 622.9" stroke="#0E1622" stroke-opacity="0.12" stroke-width="2.7"/><path d="M509.1 572.7 Q509.0 607.5 505.7 642.2" stroke="#DCE6F3" stroke-opacity="0.31" stroke-width="1.5"/><path d="M507.3 572.5 Q503.1 599.5 503.0 626.9" stroke="#0E1622" stroke-opacity="0.25" stroke-width="1.3"/><path d="M504.4 571.6 Q500.4 604.3 496.0 636.9" stroke="#DCE6F3" stroke-opacity="0.27" stroke-width="2.3"/><path d="M504.1 568.8 Q500.8 597.2 496.2 625.4" stroke="#0E1622" stroke-opacity="0.24" stroke-width="1.6"/><path d="M501.4 571.0 Q498.0 605.1 489.3 638.3" stroke="#DCE6F3" stroke-opacity="0.27" stroke-width="3.1"/><path d="M499.2 577.1 Q490.9 610.0 486.1 643.5" stroke="#DCE6F3" stroke-opacity="0.22" stroke-width="2.9"/><path d="M497.3 577.7 Q491.0 601.4 486.5 625.5" stroke="#DCE6F3" stroke-opacity="0.16" stroke-width="2.8"/><path d="M497.2 569.5 Q492.5 597.6 483.0 624.6" stroke="#0E1622" stroke-opacity="0.20" stroke-width="2.6"/><path d="M492.7 576.4 Q483.0 603.7 476.1 631.8" stroke="#0E1622" stroke-opacity="0.24" stroke-width="2.9"/><path d="M492.5 571.1 Q485.8 598.4 474.9 624.4" stroke="#0E1622" stroke-opacity="0.18" stroke-width="2.3"/><path d="M489.4 572.6 Q479.9 605.1 465.7 635.9" stroke="#DCE6F3" stroke-opacity="0.21" stroke-width="3.3"/><path d="M490.3 566.0 Q476.2 594.9 466.4 625.6" stroke="#DCE6F3" stroke-opacity="0.27" stroke-width="2.8"/><path d="M486.4 571.8 Q471.4 605.5 457.3 639.5" stroke="#0E1622" stroke-opacity="0.27" stroke-width="2.7"/><path d="M487.9 564.3 Q477.1 590.3 464.3 615.4" stroke="#0E1622" stroke-opacity="0.19" stroke-width="1.9"/><path d="M483.3 572.4 Q468.7 605.2 452.4 637.2" stroke="#0E1622" stroke-opacity="0.25" stroke-width="3.2"/><path d="M482.1 567.3 Q466.7 594.2 452.5 621.8" stroke="#0E1622" stroke-opacity="0.15" stroke-width="1.3"/><path d="M483.5 562.1 Q469.9 588.5 454.1 613.7" stroke="#DCE6F3" stroke-opacity="0.17" stroke-width="2.0"/><path d="M482.0 562.5 Q463.8 588.7 449.4 617.4" stroke="#DCE6F3" stroke-opacity="0.12" stroke-width="2.9"/><path d="M480.2 562.8 Q460.3 590.3 444.1 620.3" stroke="#0E1622" stroke-opacity="0.24" stroke-width="2.3"/><path d="M475.7 566.5 Q460.0 585.5 448.5 607.4" stroke="#DCE6F3" stroke-opacity="0.12" stroke-width="3.3"/><path d="M473.3 565.9 Q454.0 590.9 436.6 617.2" stroke="#0E1622" stroke-opacity="0.35" stroke-width="1.8"/><path d="M476.3 558.7 Q459.2 578.6 444.4 600.4" stroke="#0E1622" stroke-opacity="0.24" stroke-width="1.8"/><path d="M473.9 558.6 Q451.0 585.4 429.2 613.2" stroke="#DCE6F3" stroke-opacity="0.31" stroke-width="2.7"/><path d="M470.9 559.5 Q450.2 582.9 430.1 606.8" stroke="#DCE6F3" stroke-opacity="0.27" stroke-width="1.9"/><path d="M469.5 557.9 Q453.1 579.2 433.2 597.3" stroke="#0E1622" stroke-opacity="0.17" stroke-width="1.4"/><path d="M471.9 553.6 Q447.3 580.7 421.2 606.3" stroke="#DCE6F3" stroke-opacity="0.22" stroke-width="2.0"/><path d="M470.7 553.1 Q444.2 579.4 417.7 605.8" stroke="#DCE6F3" stroke-opacity="0.24" stroke-width="1.3"/><path d="M464.7 554.7 Q439.5 581.5 410.2 603.9" stroke="#0E1622" stroke-opacity="0.15" stroke-width="3.3"/><path d="M461.3 555.6 Q441.9 570.0 424.6 587.0" stroke="#DCE6F3" stroke-opacity="0.22" stroke-width="1.4"/><path d="M465.5 549.0 Q441.0 570.1 414.9 589.2" stroke="#DCE6F3" stroke-opacity="0.28" stroke-width="2.5"/><path d="M465.3 547.1 Q439.3 569.7 410.3 588.4" stroke="#0E1622" stroke-opacity="0.29" stroke-width="2.9"/><path d="M462.6 548.8 Q433.0 568.2 406.0 591.0" stroke="#DCE6F3" stroke-opacity="0.22" stroke-width="2.5"/><path d="M456.2 551.0 Q438.0 565.9 417.8 577.9" stroke="#0E1622" stroke-opacity="0.14" stroke-width="2.4"/><path d="M459.9 546.6 Q429.0 565.8 399.4 586.8" stroke="#DCE6F3" stroke-opacity="0.20" stroke-width="1.5"/><path d="M461.9 542.7 Q435.6 556.8 411.1 573.8" stroke="#DCE6F3" stroke-opacity="0.30" stroke-width="2.6"/><path d="M454.7 545.5 Q432.8 558.0 411.1 570.9" stroke="#DCE6F3" stroke-opacity="0.23" stroke-width="2.5"/><path d="M458.5 540.6 Q427.2 556.4 396.7 573.8" stroke="#0E1622" stroke-opacity="0.24" stroke-width="1.2"/><path d="M456.0 539.4 Q429.6 554.1 401.7 566.0" stroke="#0E1622" stroke-opacity="0.27" stroke-width="3.0"/><path d="M452.3 540.0 Q419.3 555.2 386.6 570.8" stroke="#DCE6F3" stroke-opacity="0.22" stroke-width="2.2"/><path d="M450.5 538.7 Q426.2 548.5 402.4 559.5" stroke="#DCE6F3" stroke-opacity="0.26" stroke-width="1.9"/><path d="M450.0 537.1 Q421.0 547.0 393.2 560.1" stroke="#0E1622" stroke-opacity="0.26" stroke-width="1.3"/><path d="M451.7 533.7 Q428.4 542.3 405.0 550.5" stroke="#DCE6F3" stroke-opacity="0.22" stroke-width="2.2"/><path d="M450.8 531.7 Q420.0 544.7 387.3 552.1" stroke="#DCE6F3" stroke-opacity="0.24" stroke-width="2.5"/><path d="M450.8 530.6 Q423.0 540.2 394.6 547.7" stroke="#DCE6F3" stroke-opacity="0.14" stroke-width="3.2"/><path d="M457.1 526.7 Q420.1 537.2 382.8 546.6" stroke="#DCE6F3" stroke-opacity="0.23" stroke-width="1.2"/><path d="M450.1 526.2 Q414.8 536.6 378.4 542.7" stroke="#DCE6F3" stroke-opacity="0.11" stroke-width="2.3"/><path d="M446.8 525.5 Q414.5 531.1 382.6 538.8" stroke="#0E1622" stroke-opacity="0.19" stroke-width="2.7"/><path d="M455.3 521.5 Q428.1 523.6 401.5 530.4" stroke="#0E1622" stroke-opacity="0.28" stroke-width="2.8"/><path d="M449.8 520.7 Q419.9 522.4 390.6 528.9" stroke="#DCE6F3" stroke-opacity="0.20" stroke-width="1.4"/><path d="M451.4 518.1 Q418.5 523.3 385.2 524.7" stroke="#0E1622" stroke-opacity="0.34" stroke-width="3.0"/><path d="M446.9 516.7 Q413.6 518.9 380.4 521.4" stroke="#DCE6F3" stroke-opacity="0.11" stroke-width="1.6"/><path d="M448.1 515.8 Q424.1 517.9 400.0 518.6" stroke="#DCE6F3" stroke-opacity="0.18" stroke-width="2.3"/><path d="M445.1 513.3 Q409.0 513.3 373.0 514.6" stroke="#DCE6F3" stroke-opacity="0.21" stroke-width="2.9"/><path d="M446.4 511.0 Q419.9 511.7 393.4 510.3" stroke="#DCE6F3" stroke-opacity="0.30" stroke-width="1.6"/><path d="M452.3 510.5 Q423.8 507.4 395.2 509.1" stroke="#DCE6F3" stroke-opacity="0.17" stroke-width="2.4"/><path d="M449.0 507.9 Q412.8 506.9 376.9 503.2" stroke="#DCE6F3" stroke-opacity="0.22" stroke-width="1.3"/><path d="M451.3 506.4 Q426.3 504.0 401.3 501.7" stroke="#0E1622" stroke-opacity="0.24" stroke-width="3.2"/><path d="M448.1 504.5 Q411.5 502.3 375.3 496.0" stroke="#DCE6F3" stroke-opacity="0.13" stroke-width="3.2"/><path d="M455.6 504.5 Q415.7 499.4 375.9 493.9" stroke="#DCE6F3" stroke-opacity="0.19" stroke-width="3.2"/><path d="M447.8 501.8 Q419.6 495.5 390.8 492.7" stroke="#DCE6F3" stroke-opacity="0.20" stroke-width="3.4"/><path d="M446.1 497.8 Q423.0 492.6 399.8 487.7" stroke="#0E1622" stroke-opacity="0.36" stroke-width="3.0"/><path d="M456.5 499.6 Q429.2 491.8 401.1 487.1" stroke="#DCE6F3" stroke-opacity="0.16" stroke-width="2.3"/><path d="M449.2 494.5 Q413.3 487.0 378.7 474.9" stroke="#DCE6F3" stroke-opacity="0.23" stroke-width="1.9"/><path d="M451.9 493.9 Q423.3 484.3 394.1 476.5" stroke="#DCE6F3" stroke-opacity="0.17" stroke-width="1.9"/><path d="M454.6 494.1 Q427.4 484.4 399.4 477.0" stroke="#0E1622" stroke-opacity="0.14" stroke-width="1.9"/><path d="M452.3 489.7 Q419.7 480.6 389.0 466.1" stroke="#DCE6F3" stroke-opacity="0.27" stroke-width="3.0"/><path d="M457.0 490.1 Q423.8 476.9 390.6 463.7" stroke="#DCE6F3" stroke-opacity="0.30" stroke-width="2.7"/><path d="M458.7 489.5 Q425.0 476.3 392.1 461.4" stroke="#DCE6F3" stroke-opacity="0.13" stroke-width="2.6"/><path d="M456.2 486.9 Q424.4 474.0 393.5 458.8" stroke="#DCE6F3" stroke-opacity="0.17" stroke-width="2.5"/><path d="M454.0 482.8 Q431.7 473.4 410.8 461.1" stroke="#DCE6F3" stroke-opacity="0.32" stroke-width="1.3"/><path d="M458.8 482.9 Q432.5 469.0 406.5 454.4" stroke="#DCE6F3" stroke-opacity="0.31" stroke-width="2.9"/><path d="M456.2 481.5 Q433.2 469.2 410.5 456.4" stroke="#DCE6F3" stroke-opacity="0.24" stroke-width="3.1"/><path d="M455.1 477.7 Q430.3 462.9 405.7 447.9" stroke="#DCE6F3" stroke-opacity="0.19" stroke-width="2.3"/><path d="M464.0 481.4 Q431.3 460.3 398.3 439.5" stroke="#DCE6F3" stroke-opacity="0.17" stroke-width="2.8"/><path d="M460.2 477.3 Q437.2 459.5 412.0 444.8" stroke="#0E1622" stroke-opacity="0.20" stroke-width="1.8"/><path d="M460.8 474.4 Q434.5 453.4 406.5 434.6" stroke="#DCE6F3" stroke-opacity="0.15" stroke-width="1.2"/><path d="M459.0 470.5 Q436.3 456.2 416.9 437.6" stroke="#DCE6F3" stroke-opacity="0.23" stroke-width="3.0"/><path d="M466.6 474.0 Q445.5 454.2 422.3 436.9" stroke="#0E1622" stroke-opacity="0.21" stroke-width="2.1"/><path d="M469.1 473.8 Q440.0 451.6 414.5 425.3" stroke="#0E1622" stroke-opacity="0.37" stroke-width="1.5"/><path d="M470.2 472.6 Q445.5 448.9 420.4 425.6" stroke="#0E1622" stroke-opacity="0.37" stroke-width="1.3"/><path d="M471.5 471.5 Q446.5 446.8 421.8 421.7" stroke="#0E1622" stroke-opacity="0.29" stroke-width="2.1"/><path d="M468.6 466.3 Q444.6 444.6 424.1 419.4" stroke="#DCE6F3" stroke-opacity="0.15" stroke-width="3.3"/><path d="M468.6 463.6 Q445.5 437.1 421.7 411.2" stroke="#0E1622" stroke-opacity="0.32" stroke-width="3.1"/><path d="M469.4 462.4 Q447.6 440.2 428.9 415.2" stroke="#0E1622" stroke-opacity="0.37" stroke-width="3.2"/><path d="M470.6 460.9 Q456.7 439.6 438.7 421.6" stroke="#DCE6F3" stroke-opacity="0.20" stroke-width="2.9"/><path d="M471.3 458.2 Q457.9 439.7 443.7 421.7" stroke="#0E1622" stroke-opacity="0.34" stroke-width="2.0"/><path d="M471.6 457.3 Q455.6 433.0 436.9 410.5" stroke="#DCE6F3" stroke-opacity="0.30" stroke-width="2.8"/><path d="M475.6 458.9 Q460.2 440.9 449.0 419.9" stroke="#DCE6F3" stroke-opacity="0.18" stroke-width="1.9"/><path d="M477.7 457.1 Q459.8 427.2 440.7 398.0" stroke="#0E1622" stroke-opacity="0.31" stroke-width="2.9"/><path d="M480.1 458.0 Q465.4 432.7 450.4 407.6" stroke="#DCE6F3" stroke-opacity="0.25" stroke-width="1.6"/><path d="M480.4 455.0 Q470.4 434.0 457.9 414.3" stroke="#DCE6F3" stroke-opacity="0.11" stroke-width="3.2"/><path d="M483.1 455.6 Q469.3 433.9 459.6 410.0" stroke="#DCE6F3" stroke-opacity="0.13" stroke-width="3.3"/><path d="M484.0 454.0 Q473.4 431.7 462.5 409.5" stroke="#DCE6F3" stroke-opacity="0.24" stroke-width="1.4"/><path d="M485.4 453.8 Q475.8 428.9 463.3 405.3" stroke="#DCE6F3" stroke-opacity="0.14" stroke-width="3.1"/><path d="M489.4 459.4 Q475.1 430.6 464.1 400.4" stroke="#0E1622" stroke-opacity="0.25" stroke-width="2.9"/><path d="M488.9 451.1 Q478.0 420.9 466.3 391.1" stroke="#0E1622" stroke-opacity="0.36" stroke-width="2.7"/><path d="M492.2 454.6 Q482.7 429.6 474.8 404.1" stroke="#0E1622" stroke-opacity="0.13" stroke-width="2.2"/><path d="M492.2 448.1 Q482.4 424.1 476.9 398.8" stroke="#DCE6F3" stroke-opacity="0.17" stroke-width="1.4"/><path d="M492.7 449.5 Q485.8 423.5 476.9 398.0" stroke="#DCE6F3" stroke-opacity="0.26" stroke-width="2.6"/><path d="M497.8 456.2 Q488.2 426.0 482.3 394.9" stroke="#0E1622" stroke-opacity="0.28" stroke-width="3.2"/><path d="M497.8 454.9 Q486.9 419.3 479.9 382.8" stroke="#0E1622" stroke-opacity="0.28" stroke-width="2.9"/><path d="M498.8 451.2 Q492.9 416.0 483.7 381.4" stroke="#0E1622" stroke-opacity="0.21" stroke-width="2.8"/><path d="M501.0 446.0 Q495.3 417.2 491.2 388.0" stroke="#DCE6F3" stroke-opacity="0.24" stroke-width="2.3"/><path d="M503.5 453.3 Q495.9 416.0 492.6 378.0" stroke="#DCE6F3" stroke-opacity="0.17" stroke-width="3.0"/><path d="M504.7 453.4 Q502.5 418.1 496.0 383.3" stroke="#0E1622" stroke-opacity="0.29" stroke-width="1.6"/><path d="M507.6 452.3 Q506.3 416.5 502.4 380.9" stroke="#DCE6F3" stroke-opacity="0.10" stroke-width="1.5"/><path d="M508.8 454.2 Q505.6 427.5 505.8 400.5" stroke="#DCE6F3" stroke-opacity="0.24" stroke-width="2.7"/><path d="M510.3 451.4 Q511.9 425.7 508.8 400.1" stroke="#DCE6F3" stroke-opacity="0.12" stroke-width="2.9"/><path d="M511.1 450.0 Q512.9 423.3 510.3 396.7" stroke="#0E1622" stroke-opacity="0.35" stroke-width="3.3"/><path d="M514.4 448.3 Q514.4 416.0 516.9 383.8" stroke="#0E1622" stroke-opacity="0.15" stroke-width="1.8"/><path d="M515.3 451.4 Q518.3 417.2 519.1 383.0" stroke="#0E1622" stroke-opacity="0.26" stroke-width="1.6"/><path d="M517.0 444.5 Q520.4 415.8 521.2 386.8" stroke="#DCE6F3" stroke-opacity="0.11" stroke-width="3.1"/><path d="M519.0 444.8 Q523.1 422.4 523.7 399.5" stroke="#DCE6F3" stroke-opacity="0.30" stroke-width="1.8"/><path d="M520.8 449.5 Q525.5 424.2 528.0 398.6" stroke="#0E1622" stroke-opacity="0.25" stroke-width="2.1"/><path d="M522.1 455.5 Q529.7 421.6 534.3 387.3" stroke="#DCE6F3" stroke-opacity="0.21" stroke-width="2.0"/><path d="M523.2 454.8 Q531.9 415.4 538.6 375.7" stroke="#DCE6F3" stroke-opacity="0.27" stroke-width="1.5"/><path d="M525.3 455.9 Q536.5 420.0 542.7 382.9" stroke="#DCE6F3" stroke-opacity="0.23" stroke-width="3.1"/><path d="M528.4 447.1 Q535.7 422.5 541.0 397.2" stroke="#DCE6F3" stroke-opacity="0.24" stroke-width="2.5"/><path d="M529.1 456.1 Q540.3 422.4 549.9 388.3" stroke="#0E1622" stroke-opacity="0.24" stroke-width="2.8"/><path d="M531.8 448.0 Q540.5 415.1 551.8 383.0" stroke="#DCE6F3" stroke-opacity="0.31" stroke-width="2.8"/><path d="M533.4 453.0 Q542.2 421.9 555.4 392.2" stroke="#0E1622" stroke-opacity="0.24" stroke-width="1.7"/><path d="M535.7 452.8 Q545.8 431.2 553.3 408.6" stroke="#0E1622" stroke-opacity="0.24" stroke-width="2.5"/><path d="M535.8 455.6 Q550.2 425.9 561.4 394.8" stroke="#DCE6F3" stroke-opacity="0.27" stroke-width="3.3"/><path d="M537.1 456.9 Q547.8 428.9 562.0 402.4" stroke="#DCE6F3" stroke-opacity="0.19" stroke-width="2.2"/><path d="M539.8 454.5 Q553.1 425.1 567.9 396.4" stroke="#0E1622" stroke-opacity="0.34" stroke-width="3.1"/><path d="M542.5 452.7 Q554.5 429.1 566.7 405.6" stroke="#0E1622" stroke-opacity="0.19" stroke-width="3.2"/><path d="M541.4 460.9 Q558.4 431.9 575.0 402.6" stroke="#0E1622" stroke-opacity="0.34" stroke-width="2.6"/><path d="M545.2 456.5 Q556.1 433.1 571.7 412.3" stroke="#DCE6F3" stroke-opacity="0.19" stroke-width="2.3"/><path d="M547.2 456.3 Q561.5 436.5 573.3 415.1" stroke="#DCE6F3" stroke-opacity="0.21" stroke-width="2.2"/><path d="M546.5 461.2 Q565.3 430.9 586.5 402.2" stroke="#DCE6F3" stroke-opacity="0.11" stroke-width="3.0"/><path d="M548.1 462.7 Q567.5 435.1 588.0 408.2" stroke="#DCE6F3" stroke-opacity="0.24" stroke-width="2.1"/><path d="M549.3 462.5 Q565.3 439.7 582.8 418.1" stroke="#DCE6F3" stroke-opacity="0.29" stroke-width="1.7"/><path d="M555.1 459.4 Q573.2 433.5 595.1 410.5" stroke="#DCE6F3" stroke-opacity="0.31" stroke-width="1.6"/><path d="M553.8 463.0 Q571.4 442.0 589.4 421.3" stroke="#0E1622" stroke-opacity="0.26" stroke-width="3.0"/><path d="M554.3 465.1 Q573.5 445.1 591.5 424.0" stroke="#DCE6F3" stroke-opacity="0.22" stroke-width="3.4"/><path d="M556.6 465.2 Q578.6 438.0 604.7 414.6" stroke="#0E1622" stroke-opacity="0.30" stroke-width="2.2"/><path d="M558.4 466.2 Q583.6 444.1 606.0 419.2" stroke="#0E1622" stroke-opacity="0.16" stroke-width="1.5"/><path d="M559.1 467.5 Q580.5 444.1 605.2 424.0" stroke="#DCE6F3" stroke-opacity="0.20" stroke-width="1.8"/><path d="M557.5 471.6 Q578.8 451.4 601.3 432.6" stroke="#0E1622" stroke-opacity="0.22" stroke-width="3.1"/><path d="M557.0 475.9 Q582.8 454.5 609.2 434.0" stroke="#DCE6F3" stroke-opacity="0.24" stroke-width="2.8"/><path d="M558.4 475.4 Q582.6 458.3 604.9 438.7" stroke="#DCE6F3" stroke-opacity="0.31" stroke-width="1.8"/><path d="M561.6 476.9 Q581.8 460.1 604.5 446.6" stroke="#DCE6F3" stroke-opacity="0.29" stroke-width="3.4"/><path d="M565.3 474.9 Q589.3 458.3 613.1 441.5" stroke="#DCE6F3" stroke-opacity="0.26" stroke-width="1.8"/><path d="M562.9 479.8 Q587.6 462.3 614.1 447.5" stroke="#DCE6F3" stroke-opacity="0.10" stroke-width="3.3"/><path d="M569.4 477.8 Q592.8 461.5 618.2 448.6" stroke="#0E1622" stroke-opacity="0.34" stroke-width="1.5"/><path d="M569.3 479.4 Q599.3 462.2 629.3 445.2" stroke="#DCE6F3" stroke-opacity="0.27" stroke-width="1.7"/><path d="M570.2 481.5 Q594.2 468.9 618.3 456.4" stroke="#0E1622" stroke-opacity="0.35" stroke-width="1.4"/><path d="M563.8 485.8 Q596.3 470.5 627.8 453.5" stroke="#0E1622" stroke-opacity="0.25" stroke-width="2.2"/><path d="M567.2 487.7 Q602.6 475.4 635.7 457.6" stroke="#DCE6F3" stroke-opacity="0.22" stroke-width="3.2"/><path d="M566.1 488.8 Q592.5 479.4 617.6 466.6" stroke="#0E1622" stroke-opacity="0.34" stroke-width="3.1"/><path d="M569.1 489.0 Q599.9 473.4 633.0 463.2" stroke="#0E1622" stroke-opacity="0.18" stroke-width="3.1"/><path d="M573.9 490.2 Q602.8 482.3 630.4 470.3" stroke="#0E1622" stroke-opacity="0.35" stroke-width="1.6"/><path d="M570.8 492.5 Q601.8 479.3 634.5 471.3" stroke="#DCE6F3" stroke-opacity="0.30" stroke-width="1.8"/><path d="M572.0 495.1 Q599.3 489.7 625.4 480.1" stroke="#DCE6F3" stroke-opacity="0.25" stroke-width="2.7"/><path d="M567.6 498.3 Q599.8 490.7 631.8 482.4" stroke="#DCE6F3" stroke-opacity="0.27" stroke-width="1.4"/><path d="M570.5 498.5 Q607.2 491.3 643.5 481.7" stroke="#0E1622" stroke-opacity="0.26" stroke-width="3.1"/><path d="M576.8 499.0 Q611.9 489.3 648.1 484.7" stroke="#DCE6F3" stroke-opacity="0.16" stroke-width="2.0"/><path d="M569.7 501.7 Q607.8 494.3 646.2 488.2" stroke="#0E1622" stroke-opacity="0.17" stroke-width="1.4"/><path d="M579.4 503.1 Q611.6 497.1 644.4 494.5" stroke="#0E1622" stroke-opacity="0.29" stroke-width="3.4"/><path d="M572.6 505.8 Q598.0 505.4 623.0 500.7" stroke="#DCE6F3" stroke-opacity="0.10" stroke-width="2.1"/><path d="M570.7 506.6 Q601.4 504.9 632.0 500.9" stroke="#DCE6F3" stroke-opacity="0.14" stroke-width="3.1"/><path d="M573.1 507.7 Q611.2 505.0 649.3 502.3" stroke="#DCE6F3" stroke-opacity="0.25" stroke-width="2.6"/><path d="M579.4 510.6 Q605.6 509.4 631.9 509.6" stroke="#DCE6F3" stroke-opacity="0.13" stroke-width="2.4"/></g>
    <circle cx="512" cy="512" r="142" fill="url(#limbus)"/>
  </g>
  <circle cx="512" cy="512" r="56" fill="#05070B"/>

  <ellipse cx="450" cy="442" rx="34" ry="24" transform="rotate(-28 450 442)" fill="#fff" opacity=".92"/>
  <circle cx="512" cy="512" r="268" fill="url(#gloss)"/>
  <circle cx="512" cy="512" r="267" fill="none" stroke="#fff" stroke-opacity=".18" stroke-width="2"/>
</svg>
