<svg xmlns="http://www.w3.org/2000/svg" viewBox="150 150 724 724" aria-hidden="true">
  <defs><mask id="swivel-caret" maskUnits="userSpaceOnUse" x="0" y="0" width="1024" height="1024">
    <rect width="1024" height="1024" fill="#fff"/><g fill="#000"><rect x="509.2" y="503" width="41.6" height="130" rx="20.8"/></g></mask></defs>
  <g fill="#1d1d1f"><g mask="url(#swivel-caret)"><rect x="300" y="420" width="460" height="296" rx="41" /></g><path d="M502.4 716h55.2l11.5 59.2h-78.2z"/><rect x="451.6" y="772.2" width="156.4" height="20.7" rx="10.4"/><path d="M194.9 520.9L196.5 512.5L198.2 504.3L200.0 496.3L201.8 488.5L203.7 480.9L205.7 473.4L207.7 466.1L209.7 459.0L211.9 452.1L214.0 445.4L216.3 438.8L218.5 432.4L220.9 426.2L223.2 420.2L225.7 414.3L228.1 408.7L230.7 403.2L233.2 397.9L235.8 392.8L238.5 387.9L241.2 383.2L243.9 378.6L246.7 374.3L249.5 370.1L252.3 366.2L255.2 362.4L258.1 358.8L261.0 355.4L264.0 352.2L267.0 349.2L269.9 346.4L272.9 343.7L275.9 341.3L279.0 339.0L282.0 337.0L285.0 335.1L288.1 333.4L291.1 331.8L294.1 330.5L297.1 329.3L300.2 328.2L303.2 327.4L306.2 326.6L309.3 326.1L312.3 325.6L315.4 325.4L318.4 325.2L321.5 325.2L324.7 325.3L327.8 325.6L331.0 326.0L334.2 326.5L337.5 327.2L340.8 328.0L344.2 329.0L347.7 330.1L351.2 331.3L354.7 332.7L358.3 334.2L362.0 335.9L365.7 337.8L369.5 339.8L373.4 341.9L377.3 344.2L381.3 346.7L385.4 349.3L389.5 352.1L393.7 355.1L397.9 358.2L402.2 361.5L406.6 365.0L411.0 368.6L415.5 372.4L420.0 376.4L424.6 380.5L429.3 384.8L434.0 389.3L438.8 393.9L443.6 398.7L448.5 403.7A32 32 0 0 0 491.5 356.3L491.5 356.3L485.5 351.5L479.4 346.8L473.5 342.3L467.5 337.9L461.6 333.7L455.8 329.7L450.0 325.9L444.2 322.2L438.5 318.7L432.8 315.3L427.1 312.2L421.5 309.2L416.0 306.4L410.4 303.7L404.9 301.3L399.5 299.0L394.1 296.8L388.7 294.9L383.3 293.2L378.0 291.6L372.7 290.2L367.5 289.0L362.3 288.0L357.1 287.1L352.0 286.5L347.0 286.1L341.9 285.8L337.0 285.8L332.1 285.9L327.2 286.3L322.4 286.8L317.7 287.6L313.0 288.6L308.4 289.7L303.9 291.1L299.5 292.6L295.2 294.4L291.0 296.3L286.9 298.4L282.9 300.7L278.9 303.2L275.1 305.8L271.4 308.6L267.8 311.6L264.3 314.7L260.8 318.0L257.5 321.5L254.3 325.1L251.1 328.8L248.0 332.7L245.1 336.7L242.2 340.9L239.3 345.2L236.6 349.7L233.9 354.3L231.3 359.1L228.8 364.0L226.3 369.0L223.9 374.3L221.5 379.6L219.2 385.1L217.0 390.8L214.8 396.6L212.7 402.5L210.6 408.6L208.6 414.9L206.6 421.3L204.7 427.9L202.8 434.6L201.0 441.5L199.2 448.6L197.5 455.8L195.8 463.1L194.1 470.7L192.5 478.3L191.0 486.2L189.5 494.2L188.0 502.3L186.5 510.7L185.1 519.1Z"/></g>
</svg>
